%TF.GenerationSoftware,KiCad,Pcbnew,8.0.2*%
%TF.CreationDate,2024-05-17T15:28:23-04:00*%
%TF.ProjectId,QATCH_MUX_PCB_v1,51415443-485f-44d5-9558-5f5043425f76,rev?*%
%TF.SameCoordinates,Original*%
%TF.FileFunction,Soldermask,Top*%
%TF.FilePolarity,Negative*%
%FSLAX46Y46*%
G04 Gerber Fmt 4.6, Leading zero omitted, Abs format (unit mm)*
G04 Created by KiCad (PCBNEW 8.0.2) date 2024-05-17 15:28:23*
%MOMM*%
%LPD*%
G01*
G04 APERTURE LIST*
%ADD10R,0.812800X0.762000*%
%ADD11R,0.762000X0.812800*%
%ADD12C,2.999999*%
%ADD13R,1.520000X1.520000*%
%ADD14C,1.520000*%
%ADD15R,0.457200X1.219200*%
%ADD16C,3.200000*%
%ADD17R,1.500000X1.500000*%
%ADD18C,1.500000*%
%ADD19R,0.965200X0.762000*%
%ADD20R,0.914400X0.965200*%
%ADD21R,1.625600X0.508000*%
%ADD22R,1.663700X0.558800*%
%ADD23R,0.965200X0.914400*%
%ADD24C,3.500000*%
%ADD25C,0.600000*%
G04 APERTURE END LIST*
D10*
%TO.C,R3*%
X149500000Y-130500000D03*
X149500000Y-132049400D03*
%TD*%
%TO.C,R2*%
X155500000Y-130475300D03*
X155500000Y-132024700D03*
%TD*%
%TO.C,R1*%
X152526800Y-130500000D03*
X152526800Y-132049400D03*
%TD*%
D11*
%TO.C,R21*%
X129416700Y-74200000D03*
X127867300Y-74200000D03*
%TD*%
%TO.C,R37*%
X188250600Y-84543800D03*
X189800000Y-84543800D03*
%TD*%
%TO.C,R59*%
X201250600Y-139000000D03*
X202800000Y-139000000D03*
%TD*%
D12*
%TO.C,J8*%
X148489602Y-139699999D03*
X156189586Y-139699999D03*
D13*
X158339600Y-135380000D03*
D14*
X155339601Y-135380000D03*
X152339602Y-135380000D03*
X149339603Y-135380000D03*
X146339604Y-135380000D03*
%TD*%
D15*
%TO.C,RY41*%
X180023100Y-98289300D03*
X177483100Y-98289300D03*
X177483100Y-104893300D03*
X180023100Y-104893300D03*
%TD*%
D11*
%TO.C,R20*%
X120646700Y-74200000D03*
X119097300Y-74200000D03*
%TD*%
D15*
%TO.C,RY12*%
X132927400Y-115270000D03*
X135467400Y-115270000D03*
X135467400Y-108666000D03*
X132927400Y-108666000D03*
%TD*%
D11*
%TO.C,R62*%
X150349400Y-92500000D03*
X148800000Y-92500000D03*
%TD*%
D16*
%TO.C,J3*%
X89550000Y-100623700D03*
X89550000Y-112053700D03*
D17*
X95900000Y-101893700D03*
D18*
X98440000Y-103163700D03*
X95900000Y-104433700D03*
X98440000Y-105703700D03*
X95900000Y-106973700D03*
X98440000Y-108243700D03*
X95900000Y-109513700D03*
X98440000Y-110783700D03*
%TD*%
D11*
%TO.C,R32*%
X111642000Y-117490000D03*
X110092600Y-117490000D03*
%TD*%
D15*
%TO.C,RY33*%
X180603300Y-76209800D03*
X178063300Y-76209800D03*
X178063300Y-82813800D03*
X180603300Y-82813800D03*
%TD*%
%TO.C,RY5*%
X106672900Y-93239800D03*
X109212900Y-93239800D03*
X109212900Y-86635800D03*
X106672900Y-86635800D03*
%TD*%
D11*
%TO.C,R60*%
X183600000Y-139000000D03*
X185149400Y-139000000D03*
%TD*%
D19*
%TO.C,LED12*%
X145292200Y-97400000D03*
X144200000Y-97400000D03*
%TD*%
D16*
%TO.C,J5*%
X89550000Y-122247500D03*
X89550000Y-133677500D03*
D17*
X95900000Y-123517500D03*
D18*
X98440000Y-124787500D03*
X95900000Y-126057500D03*
X98440000Y-127327500D03*
X95900000Y-128597500D03*
X98440000Y-129867500D03*
X95900000Y-131137500D03*
X98440000Y-132407500D03*
%TD*%
D11*
%TO.C,R24*%
X111642000Y-96200000D03*
X110092600Y-96200000D03*
%TD*%
D15*
%TO.C,RY16*%
X115424400Y-115270000D03*
X117964400Y-115270000D03*
X117964400Y-108666000D03*
X115424400Y-108666000D03*
%TD*%
%TO.C,RY27*%
X128515000Y-125657800D03*
X131055000Y-125657800D03*
X131055000Y-119053800D03*
X128515000Y-119053800D03*
%TD*%
%TO.C,RY50*%
X184595600Y-130783300D03*
X182055600Y-130783300D03*
X182055600Y-137387300D03*
X184595600Y-137387300D03*
%TD*%
D11*
%TO.C,R17*%
X107574600Y-85000000D03*
X106025200Y-85000000D03*
%TD*%
D15*
%TO.C,RY9*%
X124175900Y-93239800D03*
X126715900Y-93239800D03*
X126715900Y-86635800D03*
X124175900Y-86635800D03*
%TD*%
D16*
%TO.C,J4*%
X215000000Y-112108700D03*
X215000000Y-100678700D03*
D17*
X208650000Y-110838700D03*
D18*
X206110000Y-109568700D03*
X208650000Y-108298700D03*
X206110000Y-107028700D03*
X208650000Y-105758700D03*
X206110000Y-104488700D03*
X208650000Y-103218700D03*
X206110000Y-101948700D03*
%TD*%
D11*
%TO.C,R45*%
X187800000Y-106591300D03*
X189349400Y-106591300D03*
%TD*%
D15*
%TO.C,RY7*%
X102003200Y-82400000D03*
X104543200Y-82400000D03*
X104543200Y-75796000D03*
X102003200Y-75796000D03*
%TD*%
D11*
%TO.C,R19*%
X102904900Y-74200000D03*
X101355500Y-74200000D03*
%TD*%
D15*
%TO.C,RY35*%
X175564000Y-87009800D03*
X173024000Y-87009800D03*
X173024000Y-93613800D03*
X175564000Y-93613800D03*
%TD*%
D11*
%TO.C,R30*%
X116077100Y-128730000D03*
X114527700Y-128730000D03*
%TD*%
%TO.C,R9*%
X150398800Y-87500000D03*
X148849400Y-87500000D03*
%TD*%
D15*
%TO.C,RY23*%
X102003200Y-125657800D03*
X104543200Y-125657800D03*
X104543200Y-119053800D03*
X102003200Y-119053800D03*
%TD*%
D11*
%TO.C,R54*%
X170450600Y-127800000D03*
X172000000Y-127800000D03*
%TD*%
D19*
%TO.C,LED8*%
X145292200Y-87400000D03*
X144200000Y-87400000D03*
%TD*%
D11*
%TO.C,R33*%
X107574600Y-128730000D03*
X106025200Y-128730000D03*
%TD*%
D15*
%TO.C,RY51*%
X175745800Y-130783300D03*
X173205800Y-130783300D03*
X173205800Y-137387300D03*
X175745800Y-137387300D03*
%TD*%
D11*
%TO.C,R14*%
X116077100Y-85000000D03*
X114527700Y-85000000D03*
%TD*%
D15*
%TO.C,RY31*%
X202113400Y-87009800D03*
X199573400Y-87009800D03*
X199573400Y-93613800D03*
X202113400Y-93613800D03*
%TD*%
D11*
%TO.C,R42*%
X179800000Y-84543800D03*
X181349400Y-84543800D03*
%TD*%
D15*
%TO.C,RY4*%
X132927400Y-93239800D03*
X135467400Y-93239800D03*
X135467400Y-86635800D03*
X132927400Y-86635800D03*
%TD*%
%TO.C,RY25*%
X124175900Y-137000000D03*
X126715900Y-137000000D03*
X126715900Y-130396000D03*
X124175900Y-130396000D03*
%TD*%
D19*
%TO.C,LED14*%
X151939700Y-119000000D03*
X153031900Y-119000000D03*
%TD*%
D11*
%TO.C,R40*%
X174650600Y-95343800D03*
X176200000Y-95343800D03*
%TD*%
%TO.C,R55*%
X192450600Y-139000000D03*
X194000000Y-139000000D03*
%TD*%
%TO.C,R48*%
X174850600Y-117200000D03*
X176400000Y-117200000D03*
%TD*%
D15*
%TO.C,RY14*%
X110840500Y-104468000D03*
X113380500Y-104468000D03*
X113380500Y-97864000D03*
X110840500Y-97864000D03*
%TD*%
D19*
%TO.C,LED10*%
X159707800Y-92400000D03*
X160800000Y-92400000D03*
%TD*%
D11*
%TO.C,R39*%
X192200000Y-95343800D03*
X193749400Y-95343800D03*
%TD*%
%TO.C,R58*%
X179250600Y-127800000D03*
X180800000Y-127800000D03*
%TD*%
D15*
%TO.C,RY29*%
X197670000Y-76209800D03*
X195130000Y-76209800D03*
X195130000Y-82813800D03*
X197670000Y-82813800D03*
%TD*%
%TO.C,RY49*%
X180329800Y-119585900D03*
X177789800Y-119585900D03*
X177789800Y-126189900D03*
X180329800Y-126189900D03*
%TD*%
D20*
%TO.C,C2*%
X149500000Y-128000000D03*
X149500000Y-126552200D03*
%TD*%
D19*
%TO.C,LED9*%
X159739700Y-87400000D03*
X160831900Y-87400000D03*
%TD*%
%TO.C,LED13*%
X159739700Y-97400000D03*
X160831900Y-97400000D03*
%TD*%
D15*
%TO.C,RY37*%
X197389400Y-98289300D03*
X194849400Y-98289300D03*
X194849400Y-104893300D03*
X197389400Y-104893300D03*
%TD*%
D11*
%TO.C,R56*%
X174650600Y-139000000D03*
X176200000Y-139000000D03*
%TD*%
%TO.C,R61*%
X154649400Y-87500000D03*
X156198800Y-87500000D03*
%TD*%
%TO.C,R50*%
X179200000Y-106591300D03*
X180749400Y-106591300D03*
%TD*%
%TO.C,R46*%
X170950600Y-106591300D03*
X172500000Y-106591300D03*
%TD*%
D15*
%TO.C,RY48*%
X189089600Y-119585900D03*
X186549600Y-119585900D03*
X186549600Y-126189900D03*
X189089600Y-126189900D03*
%TD*%
%TO.C,RY45*%
X197849400Y-119585900D03*
X195309400Y-119585900D03*
X195309400Y-126189900D03*
X197849400Y-126189900D03*
%TD*%
D16*
%TO.C,J1*%
X89550000Y-79000000D03*
X89550000Y-90430000D03*
D17*
X95900000Y-80270000D03*
D18*
X98440000Y-81540000D03*
X95900000Y-82810000D03*
X98440000Y-84080000D03*
X95900000Y-85350000D03*
X98440000Y-86620000D03*
X95900000Y-87890000D03*
X98440000Y-89160000D03*
%TD*%
D11*
%TO.C,R38*%
X171250600Y-84543800D03*
X172800000Y-84543800D03*
%TD*%
D15*
%TO.C,RY8*%
X115424400Y-93239800D03*
X117964400Y-93239800D03*
X117964400Y-86635800D03*
X115424400Y-86635800D03*
%TD*%
D21*
%TO.C,U4*%
X152500000Y-126276099D03*
X152500000Y-127226100D03*
X152500000Y-128176101D03*
X155192400Y-128176101D03*
X155192400Y-126276099D03*
%TD*%
D15*
%TO.C,RY44*%
X171570000Y-119585900D03*
X169030000Y-119585900D03*
X169030000Y-126189900D03*
X171570000Y-126189900D03*
%TD*%
D11*
%TO.C,R35*%
X102904900Y-117490000D03*
X101355500Y-117490000D03*
%TD*%
D15*
%TO.C,RY32*%
X189136700Y-76209800D03*
X186596700Y-76209800D03*
X186596700Y-82813800D03*
X189136700Y-82813800D03*
%TD*%
D11*
%TO.C,R47*%
X192450600Y-117200000D03*
X194000000Y-117200000D03*
%TD*%
%TO.C,R28*%
X120646700Y-96200000D03*
X119097300Y-96200000D03*
%TD*%
%TO.C,R16*%
X111642000Y-74200000D03*
X110092600Y-74200000D03*
%TD*%
%TO.C,R25*%
X107574600Y-107000000D03*
X106025200Y-107000000D03*
%TD*%
%TO.C,R26*%
X124949400Y-107000000D03*
X123400000Y-107000000D03*
%TD*%
D10*
%TO.C,R66*%
X149500000Y-124549400D03*
X149500000Y-123000000D03*
%TD*%
D15*
%TO.C,RY20*%
X132098300Y-137000000D03*
X134638300Y-137000000D03*
X134638300Y-130396000D03*
X132098300Y-130396000D03*
%TD*%
D11*
%TO.C,R41*%
X196800000Y-84543800D03*
X198349400Y-84543800D03*
%TD*%
D19*
%TO.C,LED11*%
X145260300Y-92400000D03*
X144168100Y-92400000D03*
%TD*%
D11*
%TO.C,R57*%
X196800000Y-127800000D03*
X198349400Y-127800000D03*
%TD*%
%TO.C,R49*%
X196400000Y-106591300D03*
X197949400Y-106591300D03*
%TD*%
D15*
%TO.C,RY11*%
X128515000Y-82400000D03*
X131055000Y-82400000D03*
X131055000Y-75796000D03*
X128515000Y-75796000D03*
%TD*%
D11*
%TO.C,R64*%
X150349400Y-97500000D03*
X148800000Y-97500000D03*
%TD*%
D15*
%TO.C,RY19*%
X128515000Y-104468000D03*
X131055000Y-104468000D03*
X131055000Y-97864000D03*
X128515000Y-97864000D03*
%TD*%
D22*
%TO.C,U1*%
X156200050Y-104360000D03*
X156200050Y-105630000D03*
X156200050Y-106900000D03*
X156200050Y-108170000D03*
X156200050Y-109440000D03*
X156200050Y-110710000D03*
X156200050Y-111980000D03*
X156200050Y-113250000D03*
X161851550Y-113250000D03*
X161851550Y-111980000D03*
X161851550Y-110710000D03*
X161851550Y-109440000D03*
X161851550Y-108170000D03*
X161851550Y-106900000D03*
X161851550Y-105630000D03*
X161851550Y-104360000D03*
%TD*%
D11*
%TO.C,R36*%
X120646700Y-117490000D03*
X119097300Y-117490000D03*
%TD*%
%TO.C,R15*%
X133829100Y-85000000D03*
X132279700Y-85000000D03*
%TD*%
D15*
%TO.C,RY36*%
X172040000Y-98289300D03*
X169500000Y-98289300D03*
X169500000Y-104893300D03*
X172040000Y-104893300D03*
%TD*%
%TO.C,RY34*%
X184413800Y-87009800D03*
X181873800Y-87009800D03*
X181873800Y-93613800D03*
X184413800Y-93613800D03*
%TD*%
D11*
%TO.C,R22*%
X116077100Y-107000000D03*
X114527700Y-107000000D03*
%TD*%
D15*
%TO.C,RY15*%
X102003200Y-104468000D03*
X104543200Y-104468000D03*
X104543200Y-97864000D03*
X102003200Y-97864000D03*
%TD*%
D11*
%TO.C,R65*%
X154600000Y-97500000D03*
X156149400Y-97500000D03*
%TD*%
D15*
%TO.C,RY10*%
X119677700Y-82400000D03*
X122217700Y-82400000D03*
X122217700Y-75796000D03*
X119677700Y-75796000D03*
%TD*%
%TO.C,RY24*%
X115424400Y-137000000D03*
X117964400Y-137000000D03*
X117964400Y-130396000D03*
X115424400Y-130396000D03*
%TD*%
D11*
%TO.C,R43*%
X201200000Y-95343800D03*
X202749400Y-95343800D03*
%TD*%
D15*
%TO.C,RY18*%
X119677700Y-104468000D03*
X122217700Y-104468000D03*
X122217700Y-97864000D03*
X119677700Y-97864000D03*
%TD*%
D11*
%TO.C,R63*%
X154600000Y-92500000D03*
X156149400Y-92500000D03*
%TD*%
%TO.C,R31*%
X133474700Y-128700000D03*
X131925300Y-128700000D03*
%TD*%
D15*
%TO.C,RY39*%
X202143400Y-109043800D03*
X199603400Y-109043800D03*
X199603400Y-115647800D03*
X202143400Y-115647800D03*
%TD*%
%TO.C,RY46*%
X193445400Y-130783300D03*
X190905400Y-130783300D03*
X190905400Y-137387300D03*
X193445400Y-137387300D03*
%TD*%
%TO.C,RY17*%
X124175900Y-115270000D03*
X126715900Y-115270000D03*
X126715900Y-108666000D03*
X124175900Y-108666000D03*
%TD*%
D11*
%TO.C,R27*%
X102904900Y-96200000D03*
X101355500Y-96200000D03*
%TD*%
D15*
%TO.C,RY13*%
X106672900Y-115270000D03*
X109212900Y-115270000D03*
X109212900Y-108666000D03*
X106672900Y-108666000D03*
%TD*%
D11*
%TO.C,R44*%
X183250600Y-95343800D03*
X184800000Y-95343800D03*
%TD*%
D15*
%TO.C,RY22*%
X110840500Y-125657800D03*
X113380500Y-125657800D03*
X113380500Y-119053800D03*
X110840500Y-119053800D03*
%TD*%
D11*
%TO.C,R18*%
X124949400Y-85000000D03*
X123400000Y-85000000D03*
%TD*%
%TO.C,R29*%
X129416700Y-96200000D03*
X127867300Y-96200000D03*
%TD*%
D15*
%TO.C,RY42*%
X184623800Y-109043800D03*
X182083800Y-109043800D03*
X182083800Y-115647800D03*
X184623800Y-115647800D03*
%TD*%
%TO.C,RY6*%
X110840500Y-82400000D03*
X113380500Y-82400000D03*
X113380500Y-75796000D03*
X110840500Y-75796000D03*
%TD*%
%TO.C,RY43*%
X175864000Y-109043800D03*
X173324000Y-109043800D03*
X173324000Y-115647800D03*
X175864000Y-115647800D03*
%TD*%
D11*
%TO.C,R51*%
X201250600Y-117200000D03*
X202800000Y-117200000D03*
%TD*%
%TO.C,R53*%
X188050600Y-127800000D03*
X189600000Y-127800000D03*
%TD*%
D15*
%TO.C,RY26*%
X119677700Y-125657800D03*
X122217700Y-125657800D03*
X122217700Y-119053800D03*
X119677700Y-119053800D03*
%TD*%
%TO.C,RY28*%
X172070000Y-76209800D03*
X169530000Y-76209800D03*
X169530000Y-82813800D03*
X172070000Y-82813800D03*
%TD*%
D16*
%TO.C,J2*%
X215000000Y-90217500D03*
X215000000Y-78787500D03*
D17*
X208650000Y-88947500D03*
D18*
X206110000Y-87677500D03*
X208650000Y-86407500D03*
X206110000Y-85137500D03*
X208650000Y-83867500D03*
X206110000Y-82597500D03*
X208650000Y-81327500D03*
X206110000Y-80057500D03*
%TD*%
D15*
%TO.C,RY38*%
X193383600Y-109043800D03*
X190843600Y-109043800D03*
X190843600Y-115647800D03*
X193383600Y-115647800D03*
%TD*%
D11*
%TO.C,R23*%
X133829100Y-107000000D03*
X132279700Y-107000000D03*
%TD*%
%TO.C,R52*%
X183650600Y-117200000D03*
X185200000Y-117200000D03*
%TD*%
%TO.C,R34*%
X124949400Y-128730000D03*
X123400000Y-128730000D03*
%TD*%
D15*
%TO.C,RY40*%
X188706300Y-98289300D03*
X186166300Y-98289300D03*
X186166300Y-104893300D03*
X188706300Y-104893300D03*
%TD*%
D16*
%TO.C,J6*%
X215000000Y-134000000D03*
X215000000Y-122570000D03*
D17*
X208650000Y-132730000D03*
D18*
X206110000Y-131460000D03*
X208650000Y-130190000D03*
X206110000Y-128920000D03*
X208650000Y-127650000D03*
X206110000Y-126380000D03*
X208650000Y-125110000D03*
X206110000Y-123840000D03*
%TD*%
D23*
%TO.C,C3*%
X155723900Y-123776100D03*
X154276100Y-123776100D03*
%TD*%
D11*
%TO.C,R13*%
X129416700Y-117490000D03*
X127867300Y-117490000D03*
%TD*%
D22*
%TO.C,U3*%
X143000050Y-104360000D03*
X143000050Y-105630000D03*
X143000050Y-106900000D03*
X143000050Y-108170000D03*
X143000050Y-109440000D03*
X143000050Y-110710000D03*
X143000050Y-111980000D03*
X143000050Y-113250000D03*
X148651550Y-113250000D03*
X148651550Y-111980000D03*
X148651550Y-110710000D03*
X148651550Y-109440000D03*
X148651550Y-108170000D03*
X148651550Y-106900000D03*
X148651550Y-105630000D03*
X148651550Y-104360000D03*
%TD*%
D15*
%TO.C,RY21*%
X106672900Y-137000000D03*
X109212900Y-137000000D03*
X109212900Y-130396000D03*
X106672900Y-130396000D03*
%TD*%
%TO.C,RY47*%
X202295200Y-130783300D03*
X199755200Y-130783300D03*
X199755200Y-137387300D03*
X202295200Y-137387300D03*
%TD*%
%TO.C,RY30*%
X193263600Y-87009800D03*
X190723600Y-87009800D03*
X190723600Y-93613800D03*
X193263600Y-93613800D03*
%TD*%
D16*
%TO.C,J7*%
X158040000Y-71750000D03*
X146610000Y-71750000D03*
D17*
X156770000Y-78100000D03*
D18*
X155500000Y-80640000D03*
X154230000Y-78100000D03*
X152960000Y-80640000D03*
X151690000Y-78100000D03*
X150420000Y-80640000D03*
X149150000Y-78100000D03*
X147880000Y-80640000D03*
%TD*%
D24*
X166400000Y-73750000D03*
X138100000Y-73750000D03*
X166400000Y-139150000D03*
X220000000Y-73750000D03*
X220000000Y-139150000D03*
X84500000Y-73750000D03*
X138100000Y-139150000D03*
X84500000Y-139150000D03*
D25*
X153730100Y-85000000D03*
X198500000Y-87000000D03*
X153750000Y-83250000D03*
X198500000Y-130500000D03*
X140500000Y-83250000D03*
X105500000Y-104500000D03*
X105500000Y-82500000D03*
X198500000Y-109000000D03*
X140500000Y-80750000D03*
X105500000Y-72250000D03*
X105500000Y-125500000D03*
X128000000Y-115500000D03*
X176500000Y-119500000D03*
X176500000Y-98000000D03*
X128000000Y-137000000D03*
X176500000Y-76000000D03*
X128000000Y-93500000D03*
X110500000Y-115500000D03*
X110500000Y-93500000D03*
X138250000Y-89250000D03*
X110500000Y-137000000D03*
X194000000Y-76000000D03*
X194000000Y-119500000D03*
X194000000Y-98000000D03*
X189500000Y-109000000D03*
X189500000Y-130500000D03*
X114500000Y-125500000D03*
X114500000Y-82500000D03*
X114500000Y-104500000D03*
X189500000Y-87000000D03*
X165325200Y-85958900D03*
X180500000Y-87000000D03*
X180500000Y-109000000D03*
X180500000Y-130500000D03*
X123500000Y-104500000D03*
X123500000Y-82500000D03*
X123500000Y-125500000D03*
X185000000Y-98000000D03*
X185000000Y-76000000D03*
X119000000Y-115500000D03*
X185000000Y-119500000D03*
X119000000Y-137000000D03*
X119000000Y-93500000D03*
X168500000Y-98000000D03*
X135500000Y-136500000D03*
X136500000Y-93500000D03*
X136500000Y-115500000D03*
X168500000Y-118000000D03*
X168500000Y-76500000D03*
X132000000Y-82500000D03*
X171500000Y-130500000D03*
X171500000Y-109000000D03*
X171500000Y-87000000D03*
X132000000Y-125500000D03*
X132000000Y-104500000D03*
X151000000Y-103500000D03*
X154000000Y-106500000D03*
X152500000Y-105000000D03*
X117000000Y-75500000D03*
X143500000Y-86500000D03*
X143500000Y-91500000D03*
X104500000Y-106000000D03*
X104500000Y-127500000D03*
X159000000Y-110500000D03*
X101500000Y-73000000D03*
X202000000Y-118500000D03*
X202000000Y-96500000D03*
X202000000Y-85000000D03*
X143500000Y-96500000D03*
X202000000Y-107000000D03*
X104500000Y-84000000D03*
X159000000Y-104500000D03*
X145500000Y-110750000D03*
X145500000Y-104250000D03*
X202000000Y-128500000D03*
X202000000Y-140500000D03*
X154750000Y-119000000D03*
X101500000Y-95000000D03*
X101500000Y-116000000D03*
X160500000Y-90500000D03*
X160500000Y-106500000D03*
X137500000Y-88000000D03*
X137500000Y-84000000D03*
X165500000Y-94500000D03*
X165500000Y-108000000D03*
X140500000Y-97500000D03*
X159500000Y-95000000D03*
X140500000Y-95000000D03*
X160000000Y-109500000D03*
X166500000Y-93500000D03*
X166500000Y-110000000D03*
X160000000Y-118000000D03*
X160000000Y-112000000D03*
X140554000Y-99946200D03*
X140554000Y-118000000D03*
X164500000Y-113500000D03*
X164500000Y-130500000D03*
X164500000Y-100000000D03*
X147000000Y-107000000D03*
X148000000Y-85000000D03*
X145500000Y-112000000D03*
X145500000Y-125500000D03*
X146500000Y-84000000D03*
X146500000Y-108000000D03*
X149500000Y-102000000D03*
X147000000Y-111000000D03*
X166500000Y-126500000D03*
X166500000Y-116000000D03*
M02*
