M48
; DRILL file {KiCad 8.0.2} date 2024-05-17T15:28:32-0400
; FORMAT={-:-/ absolute / metric / decimal}
; #@! TF.CreationDate,2024-05-17T15:28:32-04:00
; #@! TF.GenerationSoftware,Kicad,Pcbnew,8.0.2
; #@! TF.FileFunction,Plated,1,2,PTH
FMAT,2
METRIC
; #@! TA.AperFunction,Plated,PTH,ViaDrill
T1C0.300
; #@! TA.AperFunction,Plated,PTH,ComponentDrill
T2C0.760
; #@! TA.AperFunction,Plated,PTH,ComponentDrill
T3C1.020
; #@! TA.AperFunction,Plated,PTH,ViaDrill
T4C3.000
%
G90
G05
T1
X101.5Y-73.0
X101.5Y-95.0
X101.5Y-116.0
X104.5Y-84.0
X104.5Y-106.0
X104.5Y-127.5
X105.5Y-72.25
X105.5Y-82.5
X105.5Y-104.5
X105.5Y-125.5
X110.5Y-93.5
X110.5Y-115.5
X110.5Y-137.0
X114.5Y-82.5
X114.5Y-104.5
X114.5Y-125.5
X117.0Y-75.5
X119.0Y-93.5
X119.0Y-115.5
X119.0Y-137.0
X123.5Y-82.5
X123.5Y-104.5
X123.5Y-125.5
X128.0Y-93.5
X128.0Y-115.5
X128.0Y-137.0
X132.0Y-82.5
X132.0Y-104.5
X132.0Y-125.5
X135.5Y-136.5
X136.5Y-93.5
X136.5Y-115.5
X137.5Y-84.0
X137.5Y-88.0
X138.25Y-89.25
X140.5Y-80.75
X140.5Y-83.25
X140.5Y-95.0
X140.5Y-97.5
X140.554Y-99.946
X140.554Y-118.0
X143.5Y-86.5
X143.5Y-91.5
X143.5Y-96.5
X145.5Y-104.25
X145.5Y-110.75
X145.5Y-112.0
X145.5Y-125.5
X146.5Y-84.0
X146.5Y-108.0
X147.0Y-107.0
X147.0Y-111.0
X148.0Y-85.0
X149.5Y-102.0
X151.0Y-103.5
X152.5Y-105.0
X153.73Y-85.0
X153.75Y-83.25
X154.0Y-106.5
X154.75Y-119.0
X159.0Y-104.5
X159.0Y-110.5
X159.5Y-95.0
X160.0Y-109.5
X160.0Y-112.0
X160.0Y-118.0
X160.5Y-90.5
X160.5Y-106.5
X164.5Y-100.0
X164.5Y-113.5
X164.5Y-130.5
X165.325Y-85.959
X165.5Y-94.5
X165.5Y-108.0
X166.5Y-93.5
X166.5Y-110.0
X166.5Y-116.0
X166.5Y-126.5
X168.5Y-76.5
X168.5Y-98.0
X168.5Y-118.0
X171.5Y-87.0
X171.5Y-109.0
X171.5Y-130.5
X176.5Y-76.0
X176.5Y-98.0
X176.5Y-119.5
X180.5Y-87.0
X180.5Y-109.0
X180.5Y-130.5
X185.0Y-76.0
X185.0Y-98.0
X185.0Y-119.5
X189.5Y-87.0
X189.5Y-109.0
X189.5Y-130.5
X194.0Y-76.0
X194.0Y-98.0
X194.0Y-119.5
X198.5Y-87.0
X198.5Y-109.0
X198.5Y-130.5
X202.0Y-85.0
X202.0Y-96.5
X202.0Y-107.0
X202.0Y-118.5
X202.0Y-128.5
X202.0Y-140.5
T2
X95.9Y-80.27
X95.9Y-82.81
X95.9Y-85.35
X95.9Y-87.89
X95.9Y-101.894
X95.9Y-104.434
X95.9Y-106.974
X95.9Y-109.514
X95.9Y-123.517
X95.9Y-126.057
X95.9Y-128.597
X95.9Y-131.137
X98.44Y-81.54
X98.44Y-84.08
X98.44Y-86.62
X98.44Y-89.16
X98.44Y-103.164
X98.44Y-105.704
X98.44Y-108.244
X98.44Y-110.784
X98.44Y-124.787
X98.44Y-127.328
X98.44Y-129.868
X98.44Y-132.407
X147.88Y-80.64
X149.15Y-78.1
X150.42Y-80.64
X151.69Y-78.1
X152.96Y-80.64
X154.23Y-78.1
X155.5Y-80.64
X156.77Y-78.1
X206.11Y-80.057
X206.11Y-82.597
X206.11Y-85.138
X206.11Y-87.677
X206.11Y-101.949
X206.11Y-104.489
X206.11Y-107.029
X206.11Y-109.569
X206.11Y-123.84
X206.11Y-126.38
X206.11Y-128.92
X206.11Y-131.46
X208.65Y-81.328
X208.65Y-83.867
X208.65Y-86.407
X208.65Y-88.947
X208.65Y-103.219
X208.65Y-105.759
X208.65Y-108.299
X208.65Y-110.839
X208.65Y-125.11
X208.65Y-127.65
X208.65Y-130.19
X208.65Y-132.73
T3
X146.34Y-135.38
X149.34Y-135.38
X152.34Y-135.38
X155.34Y-135.38
X158.34Y-135.38
T4
X84.5Y-73.75
X84.5Y-139.15
X138.1Y-73.75
X138.1Y-139.15
X166.4Y-73.75
X166.4Y-139.15
X220.0Y-73.75
X220.0Y-139.15
M30
